HIERARCHY
ROOT Hips
{
  OFFSET 17.7701 87.1834 112.63
  CHANNELS 6 Xposition Yposition Zposition Zrotation Xrotation Yrotation
  JOINT Spine
  {
    OFFSET -0.000355721 21.3001 -0.016921
    CHANNELS 3 Zrotation Xrotation Yrotation
    JOINT LeftArm
    {
      OFFSET 13.5181 21.3012 0
      CHANNELS 3 Zrotation Xrotation Yrotation
      JOINT LeftForeArm
      {
        OFFSET 24.5783 0 0
        CHANNELS 3 Zrotation Xrotation Yrotation
        JOINT LeftHand
        {
          OFFSET 24.5783 0 0
          CHANNELS 3 Zrotation Xrotation Yrotation
          End Site
          {
            OFFSET 7.32568 1.52588e-05 0.0169305
          }
        }
      }
    }
    JOINT Head
    {
      OFFSET 0 27.4458 -0.00489235
      CHANNELS 3 Zrotation Xrotation Yrotation
      End Site
      {
        OFFSET 0 0 0
      }
    }
    JOINT RightArm
    {
      OFFSET -13.5174 21.3012 0
      CHANNELS 3 Zrotation Xrotation Yrotation
      JOINT RightForeArm
      {
        OFFSET -24.5783 0 0
        CHANNELS 3 Zrotation Xrotation Yrotation
        JOINT RightHand
        {
          OFFSET -24.5783 0 0
          CHANNELS 3 Zrotation Xrotation Yrotation
          End Site
          {
            OFFSET -7.32568 1.52588e-05 0.0169305
          }
        }
      }
    }
  }
  JOINT RightUpLeg
  {
    OFFSET -8.44614 -9.41038 0.835684
    CHANNELS 3 Zrotation Xrotation Yrotation
    JOINT RightLeg
    {
      OFFSET 0 -40.9639 0
      CHANNELS 3 Zrotation Xrotation Yrotation
      JOINT RightFoot
      {
        OFFSET 0 -40.9639 0
        CHANNELS 3 Zrotation Xrotation Yrotation
        End Site
        {
          OFFSET 0.50614 -9.67405 14.6709
        }
      }
    }
  }
  JOINT LeftUpLeg
  {
    OFFSET 8.44614 -9.41038 0.835684
    CHANNELS 3 Zrotation Xrotation Yrotation
    JOINT LeftLeg
    {
      OFFSET 0 -40.9639 0
      CHANNELS 3 Zrotation Xrotation Yrotation
      JOINT LeftFoot
      {
        OFFSET 0 -40.9639 0
        CHANNELS 3 Zrotation Xrotation Yrotation
        End Site
        {
          OFFSET -0.50614 -9.67405 14.6709
        }
      }
    }
  }
}
MOTION
Frames:	29
Frame Time:	0.0333333
12.9845 87.8957 237.556 1.42617 2.62943 11.4435 -1.42775 15.1925 5.45663 -62.6684 -12.7942 17.1846 37.9093 24.6977 -57.8985 49.2476 -4.30212 22.1897 -7.90456 -8.04778 -23.3733 57.7901 -5.64283 -22.3229 -54.7343 32.7851 65.7815 -18.6273 14.7334 -3.65269 -24.2618 -20.939 -2.23788 -11.938 50.0195 15.4779 29.3242 -32.1313 7.86852 23.7472 -23.8277 -0.050333 9.35398 40.3105 -9.97098 -33.0332 -19.5971 -4.64176 
13.1447 87.4392 237.892 2.21546 2.65283 11.5299 -2.07378 15.475 7.29692 -57.0075 -12.7298 15.3767 52.6506 29.3577 -67.2861 32.8255 -8.16485 17.9634 -9.4043 -8.26632 -25.8237 49.4981 -8.51041 -32.3093 -97.0342 34.4091 91.9246 -5.94545 -0.344246 1.34027 -24.9357 -20.9704 -1.2506 -12.2567 51.191 15.3776 30.0536 -33.1384 8.42824 22.5686 -24.2582 -0.916514 9.61897 41.994 -9.74426 -33.305 -20.6137 -5.04061 
13.4779 86.8957 238.29 2.79313 1.3947 10.6434 -2.26631 16.2843 8.23608 -52.9172 -8.81018 17.7845 67.7868 26.3968 -78.7724 15.2837 -10.5554 8.44988 -10.4901 -7.80219 -26.0219 45.4785 -9.66832 -39.6255 -113.381 29.578 100.401 15.6104 -8.71649 9.42137 -25.448 -20.3462 -0.538767 -12.223 52.5203 16.0752 30.142 -34.0749 8.80355 21.8171 -23.0662 -1.93789 9.9029 44.2134 -9.1568 -33.8463 -22.213 -5.6467 
13.9787 86.3391 238.646 2.91235 -0.0148302 7.47725 -1.79001 17.0007 7.48801 -51.3803 -0.204974 24.4028 70.7354 15.6957 -84.1904 0.596755 -10.1619 0.287022 -11.8575 -7.44474 -21.8563 45.8724 -8.41261 -40.8529 -104.605 29.5927 95.3723 49.3426 -9.16097 17.117 -26.0642 -22.3177 -0.335685 -9.97831 56.4479 13.8798 26.5619 -34.1986 7.78732 21.8875 -20.431 -1.00477 11.196 46.1039 -9.97496 -34.6576 -24.6503 -6.59357 
14.7699 85.5731 238.852 2.48115 -0.849805 0.96053 -0.818643 17.4991 5.58402 -52.0897 10.8066 32.5964 54.6422 2.7565 -86.4868 -8.02844 -9.8263 2.53373 -14.0873 -8.68594 -12.676 48.1136 -5.5332 -38.3532 -77.9391 25.8446 81.8716 79.7936 -7.26805 18.881 -26.3656 -29.2559 -1.46798 -5.66127 63.8826 6.08144 17.7329 -32.0193 4.70316 20.831 -18.4663 0.730022 15.9769 51.1663 -11.2828 -29.0377 -29.9875 -6.70146 
15.7901 84.8505 239.066 1.27319 -1.41836 -8.63528 0.386456 18.2728 3.81711 -54.0357 17.0851 39.5938 13.3836 -3.99314 -94.2524 -3.83173 -10.3649 12.9297 -15.9702 -12.5127 -0.620817 49.5129 -4.72078 -37.9329 -43.7618 9.24996 75.8983 89.2061 -6.32866 9.64629 -25.1691 -37.7233 -3.97331 -2.38368 69.1254 -1.73868 10.8759 -26.3612 2.19575 19.1817 -18.5923 -2.11604 22.068 59.4863 -14.8596 -21.5336 -25.9239 -3.86783 
16.8364 84.1763 239.577 -1.04984 -1.71406 -20.2071 1.4249 19.017 3.16358 -57.4816 15.5346 44.866 -49.6216 6.76559 -99.3547 3.12365 -9.21214 14.5252 -14.837 -17.8051 9.16834 50.2044 -8.44875 -42.8973 -5.56559 -2.28847 87.9991 70.67 -5.25829 -1.41847 -20.745 -43.2446 -4.46751 -5.67197 69.4025 1.41675 13.9649 -20.9438 2.30276 17.1951 -16.554 -9.12945 21.6929 66.2921 -13.2052 -9.53458 -19.6489 -0.83144 
17.7196 83.3731 240.33 -3.02772 -1.27562 -31.7652 1.5021 18.7155 3.24804 -63.0634 14.5134 48.1568 -110.832 15.2485 -85.0426 -4.68644 -5.23096 0.434654 -10.907 -21.1751 12.3293 55.0617 -10.8708 -46.8305 34.0077 2.46289 94.5726 44.3467 -6.81891 3.35015 -14.1847 -46.2321 -0.802499 -12.1119 66.8888 11.8669 20.752 -17.7539 2.92886 15.9968 -12.4186 -14.5023 14.9525 69.2811 -8.71087 -1.04891 -15.3711 0.341863 
18.1303 82.3173 240.849 -2.82483 -0.927048 -40.1968 0.510502 17.6838 2.31805 -67.7702 19.7287 50.189 -134.553 13.7666 -76.1449 -17.5347 -1.25272 -12.0024 -8.03586 -22.3328 10.2628 64.6964 -5.81611 -42.2498 67.7873 -0.0874329 88.321 40.5584 -12.4384 22.9543 -9.31608 -50.3685 4.3698 -15.0416 67.802 18.8803 19.1656 -17.2914 2.53103 15.2629 -9.44401 -15.3853 10.3675 69.9513 -8.56325 -1.3836 -14.2298 0.190721 
18.534 81.5305 240.952 -2.18935 -0.820504 -43.1564 0.306657 17.6256 -0.475658 -68.6007 26.1165 52.7781 -121.42 17.523 -79.9501 -22.2074 -0.319721 -14.6977 -8.83878 -24.095 7.45088 72.3535 0.398568 -35.5438 81.1042 -7.40458 86.4827 49.8597 -16.2195 37.7019 -10.1882 -53.1322 4.61783 -10.9574 69.3117 17.4747 17.4385 -16.762 2.27427 15.4653 -9.09607 -13.5106 11.4416 70.3823 -13.1128 -3.80905 -14.5513 -0.10598 
19.0817 81.3458 240.998 -2.75719 -0.230558 -41.9396 1.73455 18.5359 -3.17796 -67.6203 29.009 54.4411 -103.656 19.4183 -86.9013 -21.5491 -0.3021 -15.9734 -11.8325 -26.7425 4.93849 73.7353 0.789169 -35.4304 74.6318 -7.13624 85.9232 48.8181 -18.7925 41.4903 -13.0292 -53.1453 0.756621 -7.46488 69.3757 14.7566 16.6468 -16.2436 2.11495 16.7779 -10.3718 -11.9003 16.6003 70.9572 -19.9012 -4.35459 -14.9588 -0.145342 
19.2672 81.5164 241.175 -3.05549 0.332168 -40.1607 3.00064 18.9761 -3.38883 -67.3144 28.1005 53.666 -102.047 19.6277 -87.6397 -21.2822 -0.315753 -15.9049 -13.9986 -28.1577 2.11632 72.1518 -1.32606 -39.2671 69.0949 -4.53782 86.325 44.5891 -20.5701 42.7086 -14.2811 -52.3816 -0.581822 -5.84954 68.8891 12.7008 17.1012 -16.3511 2.14833 17.1632 -11.7832 -12.0018 20.6062 70.673 -25.565 -4.57941 -13.562 -0.0760572 
19.1457 81.6557 241.315 -2.61392 0.348124 -39.5742 2.95998 18.9 -1.65623 -67.4997 25.1238 52.2127 -106.213 19.414 -86.072 -20.1965 -1.37522 -11.6872 -14.7548 -28.2034 0.123607 71.4722 -1.28482 -41.0823 72.53 -4.39445 86.5101 44.7431 -21.1887 44.6747 -14.8484 -52.2727 0.400999 -3.50048 68.8313 10.0037 17.4753 -16.6212 2.23541 16.3772 -12.4376 -13.3137 20.2851 70.2213 -26.7851 -5.29585 -11.1225 -0.0349522 
19.0754 81.7227 241.346 -2.68083 0.0569511 -39.6489 2.61177 19.1649 -0.20077 -67.5877 22.7059 51.9991 -105.19 18.8661 -86.6787 -18.1434 -2.62207 -7.7066 -15.2148 -28.2717 -0.263485 71.7963 0.251015 -40.3621 74.2639 -5.10332 86.369 44.8201 -22.0596 46.3681 -15.4169 -51.9657 0.416309 -1.30908 68.7631 8.44089 17.0103 -16.6194 2.21271 16.0585 -12.1802 -14.3043 18.2979 70.2076 -25.0436 -5.54212 -9.76752 -0.0057092 
18.9845 81.7288 241.353 -3.04344 -0.0878465 -39.9707 2.54025 19.7018 0.324548 -67.6246 22.0547 52.6341 -103.375 18.241 -87.6277 -18.0105 -2.77121 -6.85709 -15.6153 -28.5927 0.137711 72.1822 1.50663 -39.2408 70.9915 -4.78872 86.2618 43.237 -23.303 47.3658 -15.6135 -51.6903 -0.415804 -0.891332 68.7701 9.05131 16.2703 -16.6285 2.13701 16.4804 -11.6111 -13.9717 17.686 70.1908 -24.0493 -5.33687 -9.80174 0.0028493 
18.7957 81.618 241.384 -2.98788 -0.109958 -40.5658 2.37682 19.954 0.513222 -67.6511 22.2365 53.0077 -104.352 17.8983 -87.4488 -19.3399 -2.32669 -7.28043 -15.7177 -28.8839 0.450469 72.512 2.51591 -38.6594 69.6998 -3.67806 86.5845 42.2256 -23.8894 47.6262 -15.5535 -52.0583 -0.943463 -1.71165 69.1877 10.5993 15.7425 -16.8054 2.08939 16.7484 -11.1802 -13.013 18.1601 70.058 -24.3445 -5.17001 -10.2801 -0.00193038 
18.6612 81.4332 241.417 -2.7201 -0.148846 -41.2947 2.18128 20.0396 0.638772 -67.5459 22.3343 53.2263 -105.527 18.2381 -87.0085 -19.9126 -2.24236 -7.04358 -15.6665 -29.3371 0.703072 72.9443 3.57823 -38.4325 72.4909 -2.22383 87.1391 42.8913 -23.4747 47.6008 -15.5464 -52.757 -0.884532 -1.56031 69.7659 10.8676 15.3295 -16.9059 2.06288 16.5707 -10.8391 -12.4769 18.3331 70.1444 -24.1406 -5.05908 -10.9111 -0.021061 
18.5324 81.1859 241.429 -2.51242 -0.123766 -41.938 2.21207 20.3186 0.568863 -67.4383 22.176 53.8741 -104.951 18.764 -87.2374 -20.8974 -2.29364 -6.07006 -15.582 -30.193 1.15654 73.6681 4.83164 -37.9593 76.3667 -1.91722 87.2364 45.5183 -22.1589 47.4785 -15.6655 -53.5306 -0.43163 0.665706 70.4283 8.96632 14.8446 -16.9642 2.04562 16.3821 -10.422 -12.2564 18.0318 70.4922 -22.7008 -4.75176 -12.3229 -0.05901 
18.2265 80.8211 241.416 -2.11499 -0.119613 -42.4873 2.1647 20.7389 0.269015 -67.8423 21.4629 55.1973 -97.4484 17.4107 -90.4714 -23.7207 -1.57853 -7.35081 -15.4145 -31.3766 1.81126 74.9034 6.65623 -37.2733 78.0093 -5.04932 86.5611 46.7172 -21.0981 45.7966 -16.2785 -54.6497 -0.266176 4.57303 71.5363 5.25569 14.053 -17.1243 2.00625 16.2253 -9.70166 -11.8817 17.7509 70.66 -20.7414 -4.48431 -15.0604 -0.145819 
17.5378 80.3698 241.48 -0.992411 0.000279112 -43.1709 1.62331 20.5242 0.183207 -69.5524 20.2661 57.6796 -76.7315 12.0996 -96.7486 -20.1069 -1.60116 -13.2907 -15.3585 -32.437 2.44317 76.5865 8.70283 -38.0675 70.9573 -9.58875 84.6313 38.4944 -22.4288 40.9793 -17.9624 -56.6015 -1.61251 9.18756 73.3197 0.641407 12.6545 -17.4732 1.90453 15.9885 -8.45661 -11.3036 17.1896 69.6946 -19.1541 -5.04144 -19.4 -0.41615 
16.0185 80.0898 241.824 1.10874 1.01117 -44.3163 0.676326 18.4365 1.09293 -72.4946 19.2779 61.4854 -52.4799 6.18359 -100.756 0.493649 -6.04358 -18.6991 -15.4987 -32.7473 2.78922 78.4484 9.92633 -42.4502 51.6681 -8.8581 81.9302 20.7877 -25.8699 34.4231 -19.3813 -59.6349 -3.90017 12.3367 75.5119 -2.76098 10.7756 -18.4009 1.77636 16.1602 -6.46863 -10.7142 14.9406 66.2057 -17.1469 -6.81402 -24.4487 -1.02978 
13.3891 80.1566 242.428 3.52979 2.94232 -45.9239 -0.360797 14.5316 2.93643 -73.5742 17.9088 65.1371 -45.8761 7.09956 -103.69 26.5929 -13.3426 -22.1673 -15.4014 -32.2031 2.96668 80.4083 10.9541 -50.493 29.1794 -3.17103 85.2893 5.97791 -29.6992 30.4514 -18.2766 -62.7582 -4.7473 11.8524 77.578 -2.43495 8.89689 -20.274 1.65595 16.9288 -3.90776 -10.5497 11.6404 60.3834 -13.3788 -9.56811 -26.4465 -1.764 
10.2725 80.4557 242.837 4.99954 4.05621 -47.0019 -1.33592 11.2544 4.16453 -69.112 14.6051 66.487 -59.1823 14.8139 -104.023 31.1359 -15.7654 -33.2394 -15.0231 -31.3487 3.29277 81.6672 15.2014 -59.2434 13.6142 0.1094 96.1755 -3.39496 -34.6319 29.7901 -14.4513 -63.9437 -3.03721 7.17422 79.3753 1.75038 7.34885 -22.7116 1.53056 17.4149 -2.58669 -10.6224 9.86505 56.5178 -8.33041 -10.8746 -20.3767 -1.38036 
7.52331 81.0766 242.657 4.84905 2.97708 -46.3394 -2.13953 10.8313 3.31124 -59.63 11.2429 63.7604 -69.0203 21.3528 -103.114 19.3465 -13.2486 -47.6331 -14.936 -30.4967 3.83795 78.8805 22.5247 -64.1233 7.52453 1.03136 110.328 -15.6573 -37.1877 26.8881 -10.9118 -61.6819 -0.985498 -0.93216 80.3552 8.41765 6.45758 -24.9835 1.4688 16.8578 -4.2825 -9.85532 9.1948 56.7675 -7.13002 -4.59069 -1.90693 0.384879 
5.59955 81.842 242.065 3.43135 1.37103 -44.3865 -2.10821 12.321 0.619995 -48.5249 11.7137 55.4314 -57.5215 23.5821 -110.89 19.6907 -14.8314 -49.7455 -14.9373 -29.5804 4.92116 70.0338 23.4983 -60.1914 6.91698 2.6594 125.233 -24.1445 -29.1511 18.5926 -7.55673 -57.7193 1.20638 -7.54174 80.1528 12.6045 6.58091 -26.4917 1.58336 16.1332 -9.37649 -9.0766 8.0717 62.4862 -12.8793 0.520345 14.4077 0.0566546 
4.34449 82.6578 241.288 1.06205 1.16114 -42.9502 -1.24359 13.7958 -2.09186 -38.6223 12.5964 39.0276 -33.9272 16.5379 -123.145 33.2475 -19.5809 -34.96 -14.2079 -28.8634 6.57895 59.6454 12.7803 -41.3905 4.51944 1.31331 135.574 -14.2585 -11.7095 8.52666 -2.03531 -54.0916 4.97672 -7.73246 78.763 10.0368 6.98115 -26.7262 1.71454 16.0104 -18.7909 -8.62944 6.06515 76.4759 -14.92 -1.03246 14.3211 0.220996 
3.83752 83.3711 240.186 -2.15806 0.86072 -42.497 -0.436821 16.1913 -3.04786 -33.7093 9.01031 13.6586 -12.4179 1.5456 -122.576 37.917 -17.3268 -13.0031 -12.9759 -28.3938 7.32375 53.2901 0.627761 -11.1231 -5.11092 -8.40717 130.38 3.32062 1.04566 -0.0509685 3.25163 -50.3221 8.12493 -6.02952 76.7497 6.22429 7.03393 -25.7885 1.69321 15.2011 -27.6711 -6.20186 -5.10715 87.0029 -4.69312 -2.40851 8.7617 0.252226 
4.0075 84.0008 238.71 -6.08301 -2.05563 -42.1207 -0.212046 21.5013 -2.15911 -37.3413 4.58721 -16.4689 13.6302 -5.99421 -98.6186 27.4634 -11.8547 -2.44719 -12.024 -27.3487 6.16454 48.5074 -3.69326 16.218 -26.255 -10.7065 103.005 7.46332 3.20279 -2.93213 4.16665 -44.7608 8.00145 -2.03164 74.7609 1.8414 6.24298 -24.478 1.41999 10.8108 -31.6015 -4.91375 -27.144 88.9782 21.7208 -0.318986 8.9314 0.0496666 
4.6132 84.5435 237.338 -10.4711 -6.22249 -42.0909 0.104637 28.3869 -0.944453 -44.2452 1.99226 -44.9885 38.4352 17.2854 -66.5121 19.0136 -10.6036 -5.46905 -11.4283 -25.8893 4.89571 40.7404 -4.41319 36.3599 -38.8065 10.7863 71.032 3.07988 3.43758 -3.06892 2.29721 -40.8923 6.57415 8.06706 74.1236 -4.95887 3.72142 -14.3021 0.383116 5.37049 -29.3343 -6.91297 1.26959 84.9039 -0.78273 5.14986 19.7187 -0.982789 
